<svg width="24" height="22" viewBox="0 0 24 22" fill="none" xmlns="http://www.w3.org/2000/svg">
<path d="M16.5 5.9375C16.2969 5.9375 16.1211 5.86328 15.9727 5.71484C15.8242 5.56641 15.75 5.39063 15.75 5.1875C15.75 4.78906 15.8242 4.40625 15.9727 4.03906C16.1211 3.67187 16.3398 3.34766 16.6289 3.06641L17.5547 2.12891C17.8516 1.83203 18 1.47656 18 1.0625C18 0.859375 18.0742 0.683594 18.2227 0.535156C18.3711 0.386719 18.5469 0.3125 18.75 0.3125C18.9531 0.3125 19.1289 0.386719 19.2773 0.535156C19.4258 0.683594 19.5 0.859375 19.5 1.0625C19.5 1.46094 19.4258 1.84375 19.2773 2.21094C19.1289 2.57813 18.9102 2.90234 18.6211 3.18359L17.6953 4.12109C17.3984 4.41797 17.25 4.77344 17.25 5.1875C17.25 5.39063 17.1758 5.56641 17.0273 5.71484C16.8789 5.86328 16.7031 5.9375 16.5 5.9375ZM12 5.9375C11.7969 5.9375 11.6211 5.86328 11.4727 5.71484C11.3242 5.56641 11.25 5.39063 11.25 5.1875C11.25 4.78906 11.3242 4.40625 11.4727 4.03906C11.6211 3.67187 11.8398 3.34766 12.1289 3.06641L13.0547 2.12891C13.3516 1.83203 13.5 1.47656 13.5 1.0625C13.5 0.859375 13.5742 0.683594 13.7227 0.535156C13.8711 0.386719 14.0469 0.3125 14.25 0.3125C14.4531 0.3125 14.6289 0.386719 14.7773 0.535156C14.9258 0.683594 15 0.859375 15 1.0625C15 1.46094 14.9258 1.84375 14.7773 2.21094C14.6289 2.57813 14.4102 2.90234 14.1211 3.18359L13.1953 4.12109C12.8984 4.41797 12.75 4.77344 12.75 5.1875C12.75 5.39063 12.6758 5.56641 12.5273 5.71484C12.3789 5.86328 12.2031 5.9375 12 5.9375ZM21.75 8C22.0625 8 22.3555 8.05859 22.6289 8.17578C22.9023 8.29297 23.1406 8.45312 23.3438 8.65625C23.5469 8.85938 23.707 9.09766 23.8242 9.37109C23.9414 9.64453 24 9.9375 24 10.25V14.75C24 15.0625 23.9414 15.3555 23.8242 15.6289C23.707 15.9023 23.5469 16.1406 23.3438 16.3438C23.1406 16.5469 22.9023 16.707 22.6289 16.8242C22.3555 16.9414 22.0625 17 21.75 17H21.082C21.0664 17.0547 21.0547 17.1055 21.0469 17.1523C21.0391 17.1992 21.0234 17.2461 21 17.293V17.75C21 18.2656 20.9023 18.75 20.707 19.2031C20.5117 19.6563 20.2422 20.0547 19.8984 20.3984C19.5547 20.7422 19.1563 21.0117 18.7031 21.207C18.25 21.4023 17.7656 21.5 17.25 21.5H12.75C12.1406 21.5 11.5781 21.3633 11.0625 21.0898C10.5469 20.8164 10.1172 20.4531 9.77344 20H3.91406C3.39844 20 2.91406 19.9023 2.46094 19.707C2.00781 19.5117 1.60938 19.2461 1.26562 18.9102C0.921875 18.5742 0.652344 18.1758 0.457031 17.7148C0.261719 17.2539 0.164062 16.7656 0.164062 16.25V15.5H3.16406C3.16406 14.8828 3.28125 14.3008 3.51562 13.7539C3.75 13.207 4.07422 12.7305 4.48828 12.3242C4.90234 11.918 5.37891 11.5937 5.91797 11.3516C6.45703 11.1094 7.03906 10.9922 7.66406 11C7.89844 11 8.125 11.0195 8.34375 11.0586C8.5625 11.0977 8.78125 11.1523 9 11.2227V6.5H21V8H21.75ZM7.66406 12.5C7.25 12.5 6.86328 12.5781 6.50391 12.7344C6.14453 12.8906 5.82422 13.1055 5.54297 13.3789C5.26172 13.6523 5.04688 13.9688 4.89844 14.3281C4.75 14.6875 4.67188 15.0781 4.66406 15.5H9V12.8281C8.79687 12.7266 8.58594 12.6484 8.36719 12.5938C8.14844 12.5391 7.91406 12.5078 7.66406 12.5ZM3.91406 18.5H9.08203C9.02734 18.2734 9 18.0234 9 17.75V17H1.79297C1.87109 17.2187 1.98047 17.418 2.12109 17.5977C2.26172 17.7773 2.42188 17.9375 2.60156 18.0781C2.78125 18.2188 2.98437 18.3203 3.21094 18.3828C3.4375 18.4453 3.67188 18.4844 3.91406 18.5ZM9.33984 19.2852V19.2969L9.35156 19.3203V19.3086L9.33984 19.2852ZM19.5 17.75V8H10.5V17.75C10.5 18.0625 10.5586 18.3555 10.6758 18.6289C10.793 18.9023 10.9531 19.1406 11.1562 19.3438C11.3594 19.5469 11.5977 19.707 11.8711 19.8242C12.1445 19.9414 12.4375 20 12.75 20H17.25C17.5625 20 17.8555 19.9414 18.1289 19.8242C18.4023 19.707 18.6406 19.5469 18.8438 19.3438C19.0469 19.1406 19.207 18.9023 19.3242 18.6289C19.4414 18.3555 19.5 18.0625 19.5 17.75ZM22.5 14.75V10.25C22.5 10.0469 22.4258 9.87109 22.2773 9.72266C22.1289 9.57422 21.9531 9.5 21.75 9.5H21V15.5H21.75C21.9531 15.5 22.1289 15.4258 22.2773 15.2773C22.4258 15.1289 22.5 14.9531 22.5 14.75Z" fill="white"/>
</svg>
