<svg width="20" height="18" viewBox="0 0 20 18" fill="none" xmlns="http://www.w3.org/2000/svg">
<path d="M2 18L0 16H20L18 18H2ZM1 15C1.1 14.7 1.23333 14.4167 1.4 14.15C1.56667 13.8833 1.76667 13.6333 2 13.4V6H1V4.5H2V3.75H1V2.25H2V1.5H1V0H7.75C8.38333 0 8.91667 0.216667 9.35 0.65C9.78333 1.08333 10 1.61667 10 2.25H19V3.75H10C10 4.38333 9.78333 4.91667 9.35 5.35C8.91667 5.78333 8.38333 6 7.75 6H6V12.1C6.25 12.1333 6.48767 12.1833 6.713 12.25C6.93767 12.3167 7.15 12.4167 7.35 12.55C7.75 11.5167 8.41267 10.6667 9.338 10C10.2627 9.33333 11.3167 9 12.5 9C14.1167 9 15.4667 9.59167 16.55 10.775C17.6333 11.9583 18.1 13.3667 17.95 15H1ZM6 2.25H8V1.5H6V2.25ZM6 4.5H8V3.75H6V4.5ZM3.5 2.25H4.5V1.5H3.5V2.25ZM3.5 4.5H4.5V3.75H3.5V4.5ZM3.5 12.35C3.65 12.2667 3.80833 12.204 3.975 12.162C4.14167 12.1207 4.31667 12.0833 4.5 12.05V6H3.5V12.35Z" fill="white"/>
</svg>
