<svg xmlns="http://www.w3.org/2000/svg" width="36" height="36" fill="none" viewBox="0 0 36 36"><path fill="#000" d="M19.11 3.47998C18.9694 3.3253 18.798 3.20172 18.6069 3.11715C18.4157 3.03258 18.209 2.98889 18 2.98889C17.7909 2.98889 17.5842 3.03258 17.3931 3.11715C17.2019 3.20172 17.0306 3.3253 16.89 3.47998L3.38996 18.48C3.19089 18.6946 3.05898 18.9628 3.01048 19.2515C2.96198 19.5402 2.99901 19.8368 3.11702 20.1047C3.23502 20.3726 3.42884 20.6001 3.67457 20.7592C3.92031 20.9183 4.20723 21.002 4.49996 21H7.49996V31.5C7.49996 31.8978 7.658 32.2793 7.9393 32.5606C8.22061 32.8419 8.60214 33 8.99996 33H27C27.3978 33 27.7793 32.8419 28.0606 32.5606C28.3419 32.2793 28.5 31.8978 28.5 31.5V21H31.5C31.8978 21 32.2793 20.8419 32.5606 20.5606C32.8419 20.2793 33 19.8978 33 19.5C33.0027 19.1231 32.8635 18.7589 32.61 18.48L19.11 3.47998Z"/></svg>